<?xml version="1.0" encoding="UTF-8" standalone="no"?>
<!-- Generator: Adobe Illustrator 16.0.3, SVG Export Plug-In . SVG Version: 6.00 Build 0)  -->

<svg
   xmlns:dc="http://purl.org/dc/elements/1.1/"
   xmlns:cc="http://creativecommons.org/ns#"
   xmlns:rdf="http://www.w3.org/1999/02/22-rdf-syntax-ns#"
   xmlns:svg="http://www.w3.org/2000/svg"
   xmlns="http://www.w3.org/2000/svg"
   xmlns:sodipodi="http://sodipodi.sourceforge.net/DTD/sodipodi-0.dtd"
   xmlns:inkscape="http://www.inkscape.org/namespaces/inkscape"
   version="1.1"
   id="Layer_1"
   x="0px"
   y="0px"
   width="1024"
   height="200"
   viewBox="0 0 1024 200"
   xml:space="preserve"
   sodipodi:docname="musette-logotype.svg"
   inkscape:version="0.92.3 (2405546, 2018-03-11)"><metadata
   id="metadata9"><rdf:RDF><cc:Work
       rdf:about=""><dc:format>image/svg+xml</dc:format><dc:type
         rdf:resource="http://purl.org/dc/dcmitype/StillImage" /><dc:title></dc:title></cc:Work></rdf:RDF></metadata><defs
   id="defs7" /><sodipodi:namedview
   pagecolor="#ffffff"
   bordercolor="#666666"
   borderopacity="1"
   objecttolerance="10"
   gridtolerance="10"
   guidetolerance="10"
   inkscape:pageopacity="0"
   inkscape:pageshadow="2"
   inkscape:window-width="1126"
   inkscape:window-height="922"
   id="namedview5"
   showgrid="false"
   fit-margin-top="0"
   fit-margin-left="0"
   fit-margin-right="0"
   fit-margin-bottom="0"
   inkscape:zoom="0.23046875"
   inkscape:cx="447.315"
   inkscape:cy="98.292139"
   inkscape:window-x="508"
   inkscape:window-y="64"
   inkscape:window-maximized="0"
   inkscape:current-layer="Layer_1" />
<path
   d="m 268.196,129.97088 c 0,20.505 5.72,36.13 17.16,46.864 11.43,10.736 25.061,16.105 40.882,16.105 17.344,0 31.352,-5.419 42.033,-16.255 11.43,-11.989 17.148,-26.402 17.148,-43.235 0,0 0,-50.288001 0,-72.557001 0,-22.267 -25.159,-21.046 -25.159,0 0,21.046 0,73.751001 0,73.751001 0,8.129 -3.386,15.82 -10.15,23.077 -6.768,7.263 -14.723,10.891 -23.872,10.891 -8.197,0 -15.723,-3.191 -22.587,-9.581 -3.43,-3.484 -6.002,-7.158 -7.718,-11.033 -1.715,-3.866 -2.577,-8.317 -2.577,-13.354 0,0 0,-52.738001 0,-73.751001 0,-21.012 -25.16,-18.534 -25.16,0 0,18.536 0,69.078001 0,69.078001 z m 121.19,42.308 c 9.509,30.623 83.095,38.049 115.877,1.256 37.271,-41.829 -12.431,-89.845001 -49.198,-66.836 -30.127,18.854 -48.14,-7.69201 -30.454,-25.377001 5.027,-5.029 14.611,-9.233 25.813,-9.157 9.443,0.064 20.037,4.082 30.021,4.082 26.487,0 15.188,-35.735 -7.409,-24.382 -9.416,-2.255 -20.509,-3.583 -32.643,-2.512 -14.438,1.275 -31.276,11.791 -38.919,21.917 -26.729,35.415001 10.24,87.059001 63.743,56.988001 17.354,-9.753 36.452,8.576 25.428,25.211 -7.466,11.267 -20.476,17.031 -31.767,19.771 -19.014,4.61 -33.735,-0.239 -42.967,-6.556 -1.258,-20.715 -33.829,-14.704 -27.525,5.595 z m 293.062,5.146 c 6.954,8.219 17.582,12.328 31.876,12.328 0,0 2.967,0 21.947,0 18.981,0 18.056,-24.327 0,-24.327 -18.055,0 -21.371,0 -21.371,0 -6.103,0 -10.627,-1.492 -13.582,-4.491 -2.955,-2.987 -4.432,-6.226 -4.432,-9.699 V 75.072879 c 0,0 20.163,0 39.385,0 19.223,0 16.172,-24.328 0,-24.328 -16.171,0 -39.385,0 -39.385,0 0,0 0,-17.691 0,-35.619 0,-17.927 -24.873,-17.854 -24.873,0 0,17.853 0,131.113001 0,131.113001 0.002,12.569 3.476,22.968 10.435,31.186 z m 83.485,0 c 6.955,8.219 17.581,12.328 31.877,12.328 h 21.948 c 0,0 10.35,-1.611 9.788,-12.818 -0.456,-9.175 -9.788,-11.509 -9.788,-11.509 h -21.379 c -6.097,0 -10.627,-1.492 -13.58,-4.491 -2.955,-2.987 -4.433,-6.226 -4.433,-9.699 V 75.072879 c 0,0 21.035,0 39.392,0 18.355,0 19.936,-24.328 0,-24.328 -19.936,0 -39.392,0 -39.392,0 0,0 0,-18.318 0,-35.619 0,-17.2999999 -24.872,-17.2249999 -24.872,0 0,17.226 0,131.113001 0,131.113001 0,12.569 3.48,22.968 10.439,31.186 z m 109.444,-38.761 c 13.009,-7.5 68.516,-39.49901 68.516,-39.49901 17.636,-11.111991 -2.246,-33.457991 -12.918,-40.599991 -10.677,-7.144 -23.826,-10.718 -39.46,-10.718 -18.105,0 -34.497,6.554 -49.175,19.653 -7.43,6.553 -12.822,14.354 -16.152,23.411 -3.338,9.060991 -5.002,19.846001 -5.002,32.371001 0,12.14 3.188,23.56 9.576,34.252 6.385,10.695 15.053,19.271 26.019,25.725 10.958,6.454 22.344,9.682 34.17,9.682 14.672,0 27.233,-4.173 38.88,-10.431 21.275,-11.433 32.484,-34.031 32.484,-54.73 0,-16.336 -23.918,-18.22 -23.918,0.92 0,9.108 -5.495,19.779 -14.87,28.182 -7.63,6.836 -17.339,11.151 -30.87,11.151 -10.749,0 -21.899,-4.487 -30.854,-11.083 -9.026,-6.651 -16.891,-21.651 -16.986,-33.618 -0.144,-17.537 6.471,-28.523001 13.529,-36.143001 8.96,-9.67 19.627,-15.013 33.159,-15.013 12.769,0 23.437,4.327 32.017,12.991 0,0 -40.502,22.418001 -57.938,33.746001 -17.436,11.328 -3.217,27.251 9.793,19.751 z m -298.171,0 c 13.01,-7.5 68.516,-39.49901 68.516,-39.49901 17.636,-11.111991 -2.245,-33.457991 -12.917,-40.599991 -10.677,-7.144 -23.827,-10.718 -39.46,-10.718 -18.105,0 -34.498,6.554 -49.175,19.653 -7.43,6.553 -12.823,14.354 -16.153,23.411 -3.337,9.060991 -5.002,19.846001 -5.002,32.371001 0,12.14 3.188,23.56 9.576,34.252 6.384,10.695 15.054,19.271 26.019,25.725 10.959,6.454 22.345,9.682 34.171,9.682 14.672,0 27.232,-4.173 38.88,-10.431 21.274,-11.433 32.483,-34.031 32.483,-54.73 0,-16.336 -23.918,-18.22 -23.918,0.92 0,9.108 -5.495,19.779 -14.87,28.182 -7.63,6.836 -17.339,11.151 -30.87,11.151 -10.748,0 -21.898,-4.487 -30.853,-11.083 -9.026,-6.651 -16.891,-21.651 -16.986,-33.618 -0.144,-17.537 6.471,-28.523001 13.529,-36.143001 8.96,-9.67 19.627,-15.013 33.159,-15.013 12.769,0 23.437,4.327 32.015,12.991 0,0 -40.502,22.418001 -57.938,33.746001 -17.436,11.328 -3.215,27.251 9.794,19.751 z m -488.924,54.842 c -0.565,0 -1.13,-0.036 -1.68,-0.105 -3.499,-0.444 -8.934,-2.879 -13.671,-8.373 -7.462,-8.653 -11.246,-22.289 -11.246,-40.527 0,-20.313 3.976,-43.80401 10.375,-61.308001 3.733,-10.209 8.403,-18.7 13.504,-24.554 6.457,-7.411 13.803,-11.168 21.833,-11.168 7.13,0 13.732,2.936 19.094,8.487 3.706,3.841 6.863,8.935 9.651,15.573 4.413,10.514 7.244,23.21 9.98,35.488001 2.34,10.498 4.55,20.414 7.467,27.482 1.345,3.259 2.736,5.645 4.135,7.089 1.266,1.309 2.205,1.477 2.882,1.477 0.677,0 1.616,-0.168 2.881,-1.476 1.4,-1.445 2.791,-3.832 4.137,-7.091 2.916,-7.065 5.126,-16.983 7.465,-27.481 2.745,-12.307001 5.574,-24.991001 9.98,-35.487001 2.79,-6.643 5.947,-11.736 9.652,-15.574 5.359,-5.553 11.962,-8.488 19.093,-8.488 8.031,0 15.377,3.758 21.835,11.168 5.096,5.849 9.765,14.338 13.502,24.553 6.4,17.504991 10.375,40.997001 10.375,61.309001 0,17.1 -3.343,30.189 -9.936,38.905 -4.795,6.341 -10.083,8.676 -12.808,9.502 -1.254,0.38 -2.547,0.57 -3.846,0.57 -5.873,0.002 -10.965,-3.776 -12.669,-9.399 -2.002,-6.608 1.462,-13.633 7.775,-16.144 0.104,-0.105 0.249,-0.27 0.427,-0.504 1.073,-1.42 4.575,-7.269 4.575,-22.932 0,-17.422 -3.358,-37.429 -8.766,-52.210001 -2.556,-6.994 -5.689,-12.917 -8.598,-16.256 -0.808,-0.925 -1.417,-1.467 -1.821,-1.777 -0.762,0.734 -2.342,2.688 -4.375,7.53 -3.497,8.327 -6.065,19.850991 -8.549,30.996001 -2.597,11.65 -5.048,22.65 -8.836,31.822 -2.659,6.448 -5.796,11.487 -9.587,15.403 -6.042,6.243 -13.618,9.543 -21.908,9.543 -8.289,0 -15.865,-3.3 -21.909,-9.543 -3.789,-3.914 -6.925,-8.953 -9.587,-15.404 -3.788,-9.178 -6.239,-20.178 -8.834,-31.821 -2.484,-11.14601 -5.053,-22.670001 -8.549,-30.996001 -2.034,-4.844 -3.614,-6.796 -4.375,-7.53 -0.405,0.31 -1.016,0.853 -1.823,1.779 -2.906,3.335 -6.04,9.26 -8.597,16.253 -5.406,14.783001 -8.765,34.790001 -8.765,52.212001 0,16.373 3.689,21.925 4.82,23.235 0.091,0.104 0.17,0.188 0.232,0.247 5.541,2.224 8.948,7.936 8.188,13.943 -0.829,6.602 -6.473,11.582 -13.123,11.582 z"
   id="path2"
   inkscape:connector-curvature="0" />
</svg>